<svg xmlns="http://www.w3.org/2000/svg" viewBox="0 0 32 32" fill="none">
  <rect width="32" height="32" rx="7" fill="#0a0a0a"/>
  <path d="M16 4 A12 12 0 0 1 26.39 21 L22.1 18.5 A7 7 0 0 0 16 9 Z" fill="#ff6a00"/>
  <path d="M26.39 21 A12 12 0 0 1 5.61 21 L9.9 18.5 A7 7 0 0 0 22.1 18.5 Z" fill="#2a2a2a"/>
  <path d="M5.61 21 A12 12 0 0 1 16 4 L16 9 A7 7 0 0 0 9.9 18.5 Z" fill="#1e1e1e"/>
  <circle cx="16" cy="16" r="6" fill="#0a0a0a"/>
  <path d="M21 6.5 L23.5 4 L23.5 6 C27.5 7.5 30 11.5 30 16" stroke="#ff6a00" stroke-width="1.2" stroke-linecap="round" fill="none"/>
  <polygon points="29,13 30,16 31.5,13.5" fill="#ff6a00"/>
</svg>
